# xmcd CD database file
#
# Track frame offsets:
#	150
#	24290
#	42595
#
# Disc length: 888 seconds
#
# Revision: 0
# Processed by: cddbd v1.5PL3 Copyright (c) Steve Scherf et al.
# Submitted via: CDex 1.50beta9
#
DISCID=1c037603
DTITLE=小沢健二 - ぼくらが旅に出る理由
DYEAR=1900
DGENRE=Pop
TTITLE0=ぼくらが旅に出る理由
TTITLE1=流星ビバップ
TTITLE2=ぼくらが旅に出る理由(オリジナルカラオケ)
EXTD=
EXTT0=
EXTT1=
EXTT2=
PLAYORDER=
